<?xml version="1.0" standalone="no"?><!DOCTYPE svg PUBLIC "-//W3C//DTD SVG 1.1//EN" "http://www.w3.org/Graphics/SVG/1.1/DTD/svg11.dtd"><svg t="1586929270587" class="icon" viewBox="0 0 1024 1024" version="1.1" xmlns="http://www.w3.org/2000/svg" p-id="10255" xmlns:xlink="http://www.w3.org/1999/xlink" width="200" height="200"><defs><style type="text/css"></style></defs><path d="M493.56544 786.04288a30.1184 30.1184 0 0 0 22.36672 9.9584h2.4576c8.17408 0 16.32768-3.392 22.3488-9.9584l228.45696-254.93504c107.38944-115.65312 72.78336-275.78624 71.28064-282.56512l-0.4096-1.50016c-38.82752-139.65312-130.6752-199.34976-200.84992-224.91392-36.21376-13.24032-70.17216-18.69568-96.04608-20.8896-1.36704-0.26112-2.84672-0.56832-4.21376-0.67584-0.9344-0.13056-8.8704-0.67328-21.67552-0.54272-12.8256-0.13056-20.69504 0.54272-21.65248 0.54272-1.50016 0.10752-2.86976 0.41472-4.21632 0.67584-25.91232 2.19392-59.9808 7.7824-96.08704 20.8896-70.17472 25.56416-161.99936 85.26336-200.82432 224.91392l-0.40448 1.50016c-1.4976 6.77888-36.23936 167.04256 71.27552 282.56512l228.19328 254.93504z" fill="#FBB316" p-id="10256"></path><path d="M517.28128 271.2832c33.45664 0 60.75904 27.25888 60.75904 60.77952 0 33.47968-27.3024 60.7616-60.75904 60.7616-33.47968 0-60.78464-27.28192-60.78464-60.7616 0-33.52064 27.30496-60.77952 60.78464-60.77952z" fill="#FFFFFF" p-id="10257"></path><path d="M517.28128 271.2832c33.45664 0 60.75904 27.25888 60.75904 60.77952 0 33.47968-27.3024 60.7616-60.75904 60.7616-33.47968 0-60.78464-27.28192-60.78464-60.7616 0-33.52064 27.30496-60.77952 60.78464-60.77952z" fill="#FFFFFF" p-id="10258"></path><path d="M512 1024c-244.56704 0-429.00224-75.1104-429.00224-174.69696 0-63.69536 74.14016-118.28224 203.41248-149.696 10.8928-2.6752 21.82656 4.00128 24.48128 14.88896a20.2752 20.2752 0 0 1-14.89152 24.45824c-104.78336 25.47712-172.49024 68.80256-172.49024 110.34624 0 63.47776 159.55456 134.19776 388.4928 134.19776 228.93568 0 388.50048-70.72 388.50048-134.19776 0-41.97632-68.71552-85.51936-175.0656-110.912-10.89024-2.58816-17.5872-13.54496-14.99904-24.41216 2.60864-10.86976 13.58848-17.56672 24.41216-15.0016 131.02336 31.30624 206.15424 86.09024 206.15424 150.32832C941.00224 948.8896 756.56448 1024 512 1024z" fill="#FBB316" p-id="10259"></path></svg>