<?xml version="1.0" standalone="no"?><!DOCTYPE svg PUBLIC "-//W3C//DTD SVG 1.1//EN" "http://www.w3.org/Graphics/SVG/1.1/DTD/svg11.dtd"><svg t="1583214418832" class="icon" viewBox="0 0 1024 1024" version="1.1" xmlns="http://www.w3.org/2000/svg" p-id="5930" xmlns:xlink="http://www.w3.org/1999/xlink" width="200" height="200"><defs><style type="text/css"></style></defs><path d="M511.999488 568.748469c94.376461 0 168.101579-83.355453 179.321108-202.700585 6.529717-69.028143-8.998955-123.975593-44.877093-158.89387-30.977525-30.157857-76.215846-45.447075-134.444015-45.447075-58.228169 0-103.465466 15.289218-134.435829 45.436842-35.888372 34.908044-51.387367 89.857541-44.878117 158.904103C343.936795 485.393016 417.67317 568.748469 511.999488 568.748469zM668.452773 609.936543c-7.509021-3.059686-15.588023-3.709485-21.068851-3.709485-9.459442 0-18.448164 1.86958-25.300222 5.239328-0.649799 0.300852-63.906495 31.108508-110.095467 31.108508-46.108131 0-109.47432-30.807656-110.073978-31.108508-12.519128-6.15007-33.218566-6.887874-46.39875-1.529843-19.72832 8.039093-192.621019 80.236416-192.621019 138.114614 0 86.597287 180.352601 117.436666 349.095793 117.436666 168.773891 0 349.115236-30.839379 349.115236-117.436666C861.104491 690.172959 688.171883 617.975637 668.452773 609.936543z" p-id="5931" fill="#8a8a8a"></path></svg>